<svg width="35" height="35" viewBox="0 0 35 35" fill="none" xmlns="http://www.w3.org/2000/svg">
<g id="account_circle">
<mask id="mask0_64_199" style="mask-type:alpha" maskUnits="userSpaceOnUse" x="0" y="0" width="35" height="35">
<rect id="Bounding box" width="35" height="35" fill="#D9D9D9"/>
</mask>
<g mask="url(#mask0_64_199)">
<path id="account_circle_2" d="M8.56811 25.5937C9.95353 24.6213 11.3693 23.8618 12.8154 23.3152C14.2614 22.7681 15.823 22.4945 17.5001 22.4945C19.1772 22.4945 20.7388 22.7681 22.1849 23.3152C23.6309 23.8618 25.0467 24.6213 26.4321 25.5937C27.4529 24.4271 28.2247 23.1752 28.7474 21.8382C29.27 20.5018 29.5314 19.0557 29.5314 17.5C29.5314 14.1213 28.3708 11.2715 26.0497 8.95037C23.7287 6.62928 20.8788 5.46874 17.5001 5.46874C14.1214 5.46874 11.2716 6.62928 8.95049 8.95037C6.62941 11.2715 5.46887 14.1213 5.46887 17.5C5.46887 19.0557 5.7302 20.5018 6.25287 21.8382C6.77553 23.1752 7.54728 24.4271 8.56811 25.5937ZM17.5001 18.4117C16.1876 18.4117 15.0758 17.962 14.1646 17.0625C13.2529 16.163 12.797 15.045 12.797 13.7086C12.797 12.3961 13.2529 11.2901 14.1646 10.3906C15.0758 9.49112 16.1876 9.04137 17.5001 9.04137C18.8126 9.04137 19.9244 9.49724 20.8356 10.409C21.7474 11.3202 22.2032 12.432 22.2032 13.7445C22.2032 15.057 21.7474 16.163 20.8356 17.0625C19.9244 17.962 18.8126 18.4117 17.5001 18.4117ZM17.5001 31.3539C15.5798 31.3539 13.7811 30.9893 12.104 30.2601C10.4269 29.5309 8.96245 28.5407 7.71062 27.2895C6.45937 26.0377 5.46916 24.5732 4.73999 22.8961C4.01082 21.219 3.64624 19.4203 3.64624 17.5C3.64624 15.5797 4.01082 13.781 4.73999 12.1039C5.46916 10.4268 6.45937 8.96262 7.71062 7.71137C8.96245 6.45953 10.4269 5.46903 12.104 4.73987C13.7811 4.0107 15.5798 3.64612 17.5001 3.64612C19.4204 3.64612 21.2192 4.0107 22.8962 4.73987C24.5733 5.46903 26.0375 6.45953 27.2887 7.71137C28.5406 8.96262 29.5311 10.4268 30.2602 12.1039C30.9894 13.781 31.354 15.5797 31.354 17.5C31.354 19.4203 30.9894 21.219 30.2602 22.8961C29.5311 24.5732 28.5406 26.0377 27.2887 27.2895C26.0375 28.5407 24.5733 29.5309 22.8962 30.2601C21.2192 30.9893 19.4204 31.3539 17.5001 31.3539ZM17.5001 29.5312C18.8371 29.5312 20.1496 29.3125 21.4376 28.875C22.7256 28.4375 23.9165 27.7812 25.0102 26.9062C23.9165 26.0797 22.7379 25.4415 21.4744 24.9917C20.2103 24.5426 18.8855 24.318 17.5001 24.318C16.1147 24.318 14.7899 24.5426 13.5259 24.9917C12.2624 25.4415 11.0837 26.0797 9.98999 26.9062C11.0837 27.7812 12.2746 28.4375 13.5626 28.875C14.8506 29.3125 16.1631 29.5312 17.5001 29.5312ZM17.5001 16.5882C18.3267 16.5882 19.0072 16.3149 19.5415 15.7684C20.0764 15.2212 20.3439 14.5466 20.3439 13.7445C20.3439 12.9185 20.0764 12.2319 19.5415 11.6847C19.0072 11.1382 18.3267 10.8649 17.5001 10.8649C16.6735 10.8649 15.9931 11.1382 15.4587 11.6847C14.9238 12.2319 14.6564 12.9185 14.6564 13.7445C14.6564 14.5711 14.9238 15.2518 15.4587 15.7867C15.9931 16.3211 16.6735 16.5882 17.5001 16.5882Z" fill="#7F97B1"/>
</g>
</g>
</svg>
