<svg width="65" height="65" viewBox="0 0 65 65" fill="none" xmlns="http://www.w3.org/2000/svg">
<g id="Menu icon">
<circle id="Ellipse 1971" cx="32.5" cy="32.5" r="32.5" fill="#5AC8AE"/>
<g id="restaurant_menu">
<mask id="mask0_1961_299" style="mask-type:alpha" maskUnits="userSpaceOnUse" x="12" y="12" width="42" height="42">
<rect id="Bounding box" x="12" y="12" width="41.2549" height="41.2549" fill="#D9D9D9"/>
</mask>
<g mask="url(#mask0_1961_299)">
<path id="restaurant_menu_2" d="M19.5205 48.098L17.114 45.6915L34.7333 28.0722C34.2176 26.8689 34.146 25.5081 34.5184 23.9897C34.8909 22.4713 35.7074 21.1105 36.9679 19.9072C38.4863 18.3888 40.1766 17.5007 42.0388 17.2428C43.901 16.985 45.4194 17.4434 46.5941 18.618C47.7687 19.7926 48.2271 21.311 47.9692 23.1732C47.7114 25.0354 46.8233 26.7257 45.3049 28.2441C44.1016 29.5047 42.7407 30.3212 41.2223 30.6936C39.7039 31.0661 38.3431 30.9944 37.1398 30.4788L34.9911 32.6274L48.0552 45.6915L45.6486 48.098L32.5846 35.1199L19.5205 48.098ZM24.5915 33.401L19.4346 28.2441C17.8875 26.6971 17.114 24.8492 17.114 22.7005C17.114 20.5518 17.8875 18.7039 19.4346 17.1569L30.0921 27.9003L24.5915 33.401Z" fill="white"/>
</g>
</g>
</g>
</svg>
