<svg width="35" height="35" viewBox="0 0 35 35" fill="none" xmlns="http://www.w3.org/2000/svg">
<g id="home">
<mask id="mask0_64_193" style="mask-type:alpha" maskUnits="userSpaceOnUse" x="0" y="0" width="35" height="35">
<rect id="Bounding box" width="35" height="35" fill="#D9D9D9"/>
</mask>
<g mask="url(#mask0_64_193)">
<path id="home_2" d="M8.38488 28.0726H13.8178V19.2133H21.1818V28.0726H26.6146V14.4008L17.4998 7.5469L8.38488 14.4008V28.0726ZM8.38488 29.8961C7.89896 29.8961 7.47371 29.7139 7.10913 29.3493C6.74455 28.9847 6.56226 28.5591 6.56226 28.0726V14.4008C6.56226 14.1091 6.62292 13.8358 6.74426 13.5809C6.86617 13.3254 7.04846 13.1128 7.29113 12.943L16.406 6.08827C16.5763 5.96694 16.7525 5.87594 16.9345 5.81527C17.1171 5.75461 17.3055 5.72427 17.4998 5.72427C17.694 5.72427 17.8824 5.75461 18.065 5.81527C18.247 5.87594 18.4232 5.96694 18.5935 6.08827L27.7084 12.943C27.951 13.1128 28.1333 13.3254 28.2553 13.5809C28.3766 13.8358 28.4373 14.1091 28.4373 14.4008V28.0726C28.4373 28.5591 28.255 28.9847 27.8904 29.3493C27.5258 29.7139 27.1005 29.8961 26.6146 29.8961H19.3591V21.0368H15.6404V29.8961H8.38488Z" fill="white"/>
</g>
</g>
</svg>
