<svg width="24" height="24" viewBox="0 0 24 24" fill="none" xmlns="http://www.w3.org/2000/svg">
<g id="vuesax/bold/logout">
<g id="logout">
<path id="Vector" d="M7.2 22L9.8 22C13 22 15 20 15 16.8V12.75L8.75 12.75C8.34 12.75 8 12.41 8 12C8 11.59 8.34 11.25 8.75 11.25L15 11.25V7.2C15 4 13 2 9.8 2L7.21 2C4.01 2 2.01 4 2.01 7.2L2.01 16.8C2 20 4 22 7.2 22Z" fill="#52C1D3"/>
<path id="Vector_2" d="M19.4401 12.75L17.3701 14.82C17.2201 14.97 17.1501 15.16 17.1501 15.35C17.1501 15.54 17.2201 15.74 17.3701 15.88C17.6601 16.17 18.1401 16.17 18.4301 15.88L21.7801 12.53C22.0701 12.24 22.0701 11.76 21.7801 11.47L18.4301 8.12C18.1401 7.83 17.6601 7.83 17.3701 8.12C17.0801 8.41 17.0801 8.89 17.3701 9.18L19.4401 11.25L15.0001 11.25V12.75L19.4401 12.75Z" fill="#52C1D3"/>
</g>
</g>
</svg>
