<svg width="35" height="35" viewBox="0 0 35 35" fill="none" xmlns="http://www.w3.org/2000/svg">
<g id="notifications">
<mask id="mask0_64_196" style="mask-type:alpha" maskUnits="userSpaceOnUse" x="0" y="0" width="35" height="35">
<rect id="Bounding box" width="35" height="35" fill="#D9D9D9"/>
</mask>
<g mask="url(#mask0_64_196)">
<path id="notifications_2" d="M7.3932 27.5257C7.12603 27.5257 6.90728 27.4347 6.73695 27.2528C6.56661 27.0702 6.48145 26.8453 6.48145 26.5781C6.48145 26.3349 6.56661 26.1222 6.73695 25.9403C6.90728 25.7577 7.12603 25.6664 7.3932 25.6664H9.47132V14.6562C9.47132 12.712 10.0727 10.962 11.2756 9.40625C12.479 7.8505 14.0651 6.86613 16.0338 6.45312V5.432C16.0338 4.94608 16.1977 4.53892 16.5256 4.2105C16.854 3.88267 17.2734 3.71875 17.7838 3.71875C18.2697 3.71875 18.683 3.88267 19.0237 4.2105C19.3638 4.53892 19.5338 4.94608 19.5338 5.432V6.45312C21.5026 6.86613 23.0945 7.8505 24.3096 9.40625C25.5252 10.962 26.1331 12.712 26.1331 14.6562V25.6664H28.1744C28.4416 25.6664 28.6604 25.7577 28.8307 25.9403C29.001 26.1222 29.0862 26.3471 29.0862 26.6149C29.0862 26.8575 29.001 27.0702 28.8307 27.2528C28.6604 27.4347 28.4416 27.5257 28.1744 27.5257H7.3932ZM17.7838 31.7914C17.0792 31.7914 16.4655 31.5362 15.9428 31.0257C15.4202 30.5153 15.1588 29.8955 15.1588 29.1664H20.4088C20.4088 29.8955 20.1536 30.5153 19.6432 31.0257C19.1328 31.5362 18.513 31.7914 17.7838 31.7914ZM11.2939 25.6664H24.2737V14.6562C24.2737 12.8333 23.6478 11.2898 22.3959 10.0258C21.1441 8.76225 19.619 8.1305 17.8206 8.1305C15.9977 8.1305 14.4542 8.76225 13.1901 10.0258C11.926 11.2898 11.2939 12.8333 11.2939 14.6562V25.6664Z" fill="#7F97B1"/>
</g>
</g>
</svg>
