<svg width="35" height="35" viewBox="0 0 35 35" fill="none" xmlns="http://www.w3.org/2000/svg">
<g id="restaurant">
<mask id="mask0_64_222" style="mask-type:alpha" maskUnits="userSpaceOnUse" x="0" y="0" width="35" height="35">
<rect id="Bounding box" width="35" height="35" fill="#D9D9D9"/>
</mask>
<g mask="url(#mask0_64_222)">
<path id="restaurant_2" d="M25.6886 31.7187C25.3785 31.7187 25.1188 31.6139 24.9094 31.4043C24.7 31.1946 24.5953 30.9349 24.5953 30.625V20.052H23.2492C22.5242 20.052 21.9036 19.7939 21.3874 19.2777C20.8711 18.7614 20.613 18.1408 20.613 17.4158V10.2083C20.613 8.38731 21.1977 6.80792 22.3672 5.47017C23.5366 4.13244 25.0085 3.41216 26.7828 3.30932V30.625C26.7828 30.9349 26.6779 31.1946 26.4682 31.4043C26.2585 31.6139 25.9986 31.7187 25.6886 31.7187ZM11.6662 31.7187C11.3562 31.7187 11.0964 31.6139 10.887 31.4043C10.6777 31.1946 10.573 30.9349 10.573 30.625V18.4591C9.38947 18.203 8.39248 17.6042 7.58199 16.6628C6.77147 15.7215 6.36621 14.5983 6.36621 13.2933V4.37499C6.36621 4.0651 6.47108 3.80533 6.68081 3.5957C6.89054 3.38609 7.15042 3.28128 7.46043 3.28128C7.77048 3.28128 8.03019 3.38609 8.23959 3.5957C8.44898 3.80533 8.55367 4.0651 8.55367 4.37499V13.2933H10.573V4.37499C10.573 4.0651 10.6778 3.80533 10.8875 3.5957C11.0973 3.38609 11.3571 3.28128 11.6671 3.28128C11.9772 3.28128 12.2369 3.38609 12.4463 3.5957C12.6557 3.80533 12.7604 4.0651 12.7604 4.37499V13.2933H14.7797V4.37499C14.7797 4.0651 14.8845 3.80533 15.0943 3.5957C15.304 3.38609 15.5638 3.28128 15.8739 3.28128C16.1839 3.28128 16.4436 3.38609 16.653 3.5957C16.8624 3.80533 16.9671 4.0651 16.9671 4.37499V13.2933C16.9671 14.5983 16.5619 15.7215 15.7514 16.6628C14.9409 17.6042 13.9439 18.203 12.7604 18.4591V30.625C12.7604 30.9349 12.6555 31.1946 12.4458 31.4043C12.2361 31.6139 11.9762 31.7187 11.6662 31.7187Z" fill="#7F97B1"/>
</g>
</g>
</svg>
