<svg width="35" height="35" viewBox="0 0 35 35" fill="none" xmlns="http://www.w3.org/2000/svg">
<g id="sell">
<mask id="mask0_71_19" style="mask-type:alpha" maskUnits="userSpaceOnUse" x="0" y="0" width="35" height="35">
<rect id="Bounding box" width="35" height="35" fill="#D9D9D9"/>
</mask>
<g mask="url(#mask0_71_19)">
<path id="sell_2" d="M20.2763 30.7035C19.8567 31.1223 19.3367 31.3317 18.7164 31.3317C18.0961 31.3317 17.5766 31.1223 17.1578 30.7035L4.32442 17.8702C4.11316 17.6589 3.94724 17.4157 3.82666 17.1406C3.70605 16.8656 3.64575 16.5722 3.64575 16.2604V5.83334C3.64575 5.23693 3.86123 4.72325 4.29219 4.29232C4.72313 3.86136 5.23681 3.64587 5.83322 3.64587H16.2603C16.5613 3.64587 16.8496 3.70462 17.1253 3.82212C17.4009 3.93958 17.6399 4.09771 17.842 4.29651L30.6753 17.1523C31.1035 17.5804 31.3199 18.1035 31.3246 18.7214C31.3292 19.3393 31.1222 19.8576 30.7034 20.2764L20.2763 30.7035ZM18.7107 29.1667L29.1441 18.7396L16.2666 5.83334H5.83322V16.2604L18.7107 29.1667ZM9.47741 11.3021C9.9833 11.3021 10.4139 11.125 10.7691 10.7709C11.1243 10.4167 11.3019 9.98671 11.3019 9.48081C11.3019 8.97492 11.1249 8.54436 10.7707 8.18913C10.4166 7.83391 9.98659 7.65629 9.48069 7.65629C8.97479 7.65629 8.54423 7.83336 8.18901 8.18749C7.83378 8.54162 7.65617 8.97164 7.65617 9.47753C7.65617 9.98343 7.83323 10.414 8.18737 10.7692C8.5415 11.1244 8.97151 11.3021 9.47741 11.3021Z" fill="#7F97B1"/>
</g>
</g>
</svg>
